<svg version="1.1" xmlns="http://www.w3.org/2000/svg" xmlns:xlink="http://www.w3.org/1999/xlink" viewBox="0, 0, 400,400">
    <g>
        <path id="path0" d="M154.887 15.756 C 107.567 25.855,57.446 73.633,38.847 126.370 C 2.197 230.293,57.697 337.465,162.630 365.399 C 309.595 404.522,434.693 248.830,367.222 110.770 C 332.655 40.040,244.481 -7.987,208.055 24.076 L 204.595 27.122 200.982 24.348 C 189.223 15.324,171.975 12.108,154.887 15.756 M209.640 84.742 C 216.661 95.027,224.964 101.465,247.744 114.286 C 270.343 127.004,278.882 133.304,288.422 144.296 C 343.282 207.508,315.743 304.612,237.218 324.841 C 164.904 343.469,98.372 295.901,95.736 223.684 C 94.096 178.768,114.508 145.232,160.150 117.851 C 184.545 103.217,196.288 93.053,201.878 81.735 L 204.771 75.877 205.719 78.132 C 206.241 79.372,208.005 82.347,209.640 84.742 " stroke="none" fill-rule="evenodd">
        </path>
    </g>
</svg>